<svg width="24" height="11" viewBox="0 0 24 11" fill="none" xmlns="http://www.w3.org/2000/svg">
<path d="M16.303 3.50195H1.21902C1.05989 3.50195 0.907276 3.56516 0.794754 3.67768C0.682233 3.79021 0.619019 3.94282 0.619019 4.10195L0.619019 6.90195C0.619019 6.98074 0.634538 7.05876 0.664691 7.13156C0.694844 7.20435 0.739039 7.2705 0.794754 7.32621C0.85047 7.38193 0.916613 7.42612 0.989408 7.45628C1.0622 7.48643 1.14023 7.50195 1.21902 7.50195H16.303V9.80195C16.3034 10.0389 16.374 10.2705 16.5058 10.4674C16.6376 10.6643 16.8248 10.8178 17.0437 10.9085C17.2627 10.9992 17.5036 11.0231 17.736 10.9771C17.9685 10.931 18.1821 10.8172 18.35 10.6499L22.65 6.34995C22.7619 6.23846 22.8507 6.10599 22.9112 5.96013C22.9718 5.81427 23.003 5.65789 23.003 5.49995C23.003 5.34201 22.9718 5.18563 22.9112 5.03977C22.8507 4.8939 22.7619 4.76143 22.65 4.64995L18.35 0.349949C18.1821 0.182681 17.9685 0.0688617 17.736 0.0228433C17.5036 -0.023175 17.2627 0.000667259 17.0437 0.0913648C16.8248 0.182062 16.6376 0.335554 16.5058 0.532485C16.374 0.729416 16.3034 0.96097 16.303 1.19795V3.50195Z" fill="white"/>
</svg>
