<svg width="13" height="8" viewBox="0 0 13 8" fill="none" xmlns="http://www.w3.org/2000/svg">
<path d="M9.34497 2.91089H1.11197C1.02525 2.91089 0.942074 2.94534 0.880749 3.00666C0.819425 3.06799 0.784973 3.15116 0.784973 3.23789V4.76489C0.784973 4.85161 0.819425 4.93478 0.880749 4.99611C0.942074 5.05743 1.02525 5.09189 1.11197 5.09189H9.34497V6.34789C9.34475 6.4774 9.38299 6.60405 9.45484 6.71181C9.52669 6.81956 9.62891 6.90356 9.74855 6.95315C9.86819 7.00274 9.99986 7.01569 10.1269 6.99036C10.2539 6.96504 10.3705 6.90257 10.462 6.81089L12.809 4.46389C12.8697 4.40315 12.9179 4.33105 12.9508 4.25169C12.9837 4.17234 13.0006 4.08728 13.0006 4.00138C13.0006 3.91549 12.9837 3.83043 12.9508 3.75108C12.9179 3.67172 12.8697 3.59962 12.809 3.53889L10.462 1.19089C10.3705 1.0992 10.2539 1.03673 10.1269 1.01141C9.99986 0.98608 9.86819 0.999033 9.74855 1.04862C9.62891 1.09822 9.52669 1.18221 9.45484 1.28996C9.38299 1.39772 9.34475 1.52438 9.34497 1.65389V2.91089Z" fill="#06C167"/>
</svg>
