<svg width="26" height="20" viewBox="0 0 26 20" fill="none" xmlns="http://www.w3.org/2000/svg">
<path d="M8.83101 19.007L0.381011 10.557C0.137359 10.3132 0.000488281 9.98268 0.000488281 9.63801C0.000488281 9.29335 0.137359 8.96279 0.381011 8.71901L2.21901 6.88101C2.46279 6.63736 2.79335 6.50049 3.13801 6.50049C3.48268 6.50049 3.81323 6.63736 4.05701 6.88101L9.75001 12.573L21.942 0.381011C22.1858 0.13736 22.5163 0.000488281 22.861 0.000488281C23.2057 0.000488281 23.5362 0.13736 23.78 0.381011L25.618 2.21901C25.8617 2.46279 25.9985 2.79335 25.9985 3.13801C25.9985 3.48267 25.8617 3.81323 25.618 4.05701L10.668 19.007C10.4242 19.2507 10.0937 19.3875 9.74901 19.3875C9.40435 19.3875 9.07379 19.2507 8.83001 19.007H8.83101Z" fill="#06C167"/>
</svg>
