<svg width="21" height="20" viewBox="0 0 21 20" fill="none" xmlns="http://www.w3.org/2000/svg">
<path d="M6.54805 5.54998C7.00203 5.09524 7.31103 4.51614 7.43599 3.88585C7.56096 3.25556 7.49628 2.60237 7.25014 2.00882C7.004 1.41527 6.58743 0.908011 6.05309 0.551134C5.51875 0.194258 4.89061 0.00378418 4.24805 0.00378418C3.60549 0.00378418 2.97735 0.194258 2.443 0.551134C1.90866 0.908011 1.4921 1.41527 1.24596 2.00882C0.999812 2.60237 0.935137 3.25556 1.0601 3.88585C1.18507 4.51614 1.49407 5.09524 1.94805 5.54998C2.24991 5.85234 2.60842 6.09221 3.00308 6.25588C3.39774 6.41954 3.8208 6.50378 4.24805 6.50378C4.6753 6.50378 5.09835 6.41954 5.49301 6.25588C5.88767 6.09221 6.24619 5.85234 6.54805 5.54998ZM19.548 13.95C19.0933 13.496 18.5142 13.187 17.8839 13.062C17.2536 12.9371 16.6004 13.0017 16.0069 13.2479C15.4133 13.494 14.9061 13.9106 14.5492 14.4449C14.1923 14.9793 14.0019 15.6074 14.0019 16.25C14.0019 16.8925 14.1923 17.5207 14.5492 18.055C14.9061 18.5894 15.4133 19.0059 16.0069 19.2521C16.6004 19.4982 17.2536 19.5629 17.8839 19.4379C18.5142 19.313 19.0933 19.004 19.548 18.55C19.8504 18.2481 20.0903 17.8896 20.2539 17.4949C20.4176 17.1003 20.5019 16.6772 20.5019 16.25C20.5019 15.8227 20.4176 15.3997 20.2539 15.005C20.0903 14.6104 19.8504 14.2518 19.548 13.95ZM19.448 2.19798L18.3 1.04998C18.1492 0.898677 17.9699 0.778634 17.7726 0.696726C17.5753 0.614819 17.3637 0.572657 17.15 0.572657C16.9364 0.572657 16.7248 0.614819 16.5275 0.696726C16.3301 0.778634 16.1509 0.898677 16 1.04998L2.05105 15.003C1.89975 15.1538 1.77971 15.3331 1.6978 15.5304C1.61589 15.7278 1.57373 15.9393 1.57373 16.153C1.57373 16.3666 1.61589 16.5782 1.6978 16.7755C1.77971 16.9729 1.89975 17.1521 2.05105 17.303L3.20005 18.45C3.35091 18.6013 3.53015 18.7213 3.72749 18.8032C3.92482 18.8851 4.13639 18.9273 4.35005 18.9273C4.56371 18.9273 4.77527 18.8851 4.97261 18.8032C5.16995 18.7213 5.34918 18.6013 5.50005 18.45L19.449 4.49698C19.6003 4.34611 19.7204 4.16688 19.8023 3.96954C19.8842 3.7722 19.9264 3.56064 19.9264 3.34698C19.9264 3.13332 19.8842 2.92175 19.8023 2.72441C19.7204 2.52708 19.6003 2.34784 19.449 2.19698L19.448 2.19798Z" fill="#06C167"/>
</svg>
