<svg width="27" height="24" viewBox="0 0 27 24" fill="none" xmlns="http://www.w3.org/2000/svg">
<path d="M13 0.625003C11.2926 0.624083 9.60168 0.95971 8.02403 1.6127C6.44638 2.26568 5.01291 3.22322 3.80556 4.43056C2.59822 5.63791 1.64068 7.07138 0.987694 8.64903C0.334709 10.2267 -0.000918249 11.9176 1.88682e-06 13.625V16.063C0.00024418 16.3649 0.0845767 16.6607 0.243543 16.9174C0.40251 17.174 0.629826 17.3813 0.900002 17.516L1.63 17.881C1.68006 19.3551 2.30084 20.752 3.36133 21.7771C4.42183 22.8021 5.83909 23.3751 7.314 23.375H8.531C8.8543 23.375 9.16436 23.2466 9.39297 23.018C9.62157 22.7894 9.75 22.4793 9.75 22.156V13.219C9.75 12.8957 9.62157 12.5856 9.39297 12.357C9.16436 12.1284 8.8543 12 8.531 12H7.313C6.55604 11.9991 5.80656 12.1497 5.10875 12.4431C4.41094 12.7364 3.77894 13.1665 3.25 13.708V13.625C3.25 11.0391 4.27723 8.55919 6.10571 6.73071C7.93419 4.90223 10.4141 3.875 13 3.875C15.5859 3.875 18.0658 4.90223 19.8943 6.73071C21.7228 8.55919 22.75 11.0391 22.75 13.625V13.708C22.2212 13.1666 21.5893 12.7366 20.8917 12.4433C20.1941 12.1499 19.4448 11.9992 18.688 12H17.469C17.3089 12 17.1504 12.0315 17.0025 12.0928C16.8546 12.1541 16.7202 12.2438 16.607 12.357C16.4938 12.4702 16.4041 12.6046 16.3428 12.7525C16.2815 12.9004 16.25 13.0589 16.25 13.219V22.157C16.25 22.3171 16.2815 22.4756 16.3428 22.6235C16.4041 22.7714 16.4938 22.9058 16.607 23.019C16.7202 23.1322 16.8546 23.222 17.0025 23.2832C17.1504 23.3445 17.3089 23.376 17.469 23.376H18.688C20.1629 23.3761 21.5802 22.8031 22.6407 21.7781C23.7012 20.753 24.3219 19.3561 24.372 17.882L25.102 17.517C25.3722 17.3823 25.5995 17.175 25.7585 16.9184C25.9174 16.6617 26.0018 16.3659 26.002 16.064V13.625C26.0029 11.9174 25.6672 10.2263 25.0141 8.64857C24.361 7.07079 23.4033 5.63723 22.1957 4.42986C20.9882 3.22248 19.5545 2.26499 17.9766 1.61212C16.3987 0.959253 14.7076 0.62382 13 0.625003V0.625003Z" fill="#06C167"/>
</svg>
