<svg width="26" height="23" viewBox="0 0 26 23" fill="none" xmlns="http://www.w3.org/2000/svg">
<path d="M23.42 4.87498H4.063C3.85244 4.86759 3.65298 4.77875 3.50664 4.62719C3.3603 4.47562 3.27851 4.27316 3.27851 4.06248C3.27851 3.85179 3.3603 3.64933 3.50664 3.49777C3.65298 3.3462 3.85244 3.25736 4.063 3.24998H23.563C23.6697 3.25011 23.7754 3.2292 23.874 3.18845C23.9727 3.14771 24.0623 3.08792 24.1378 3.0125C24.2133 2.93709 24.2732 2.84753 24.3141 2.74895C24.355 2.65037 24.376 2.54469 24.376 2.43798C24.376 2.11795 24.313 1.80105 24.1905 1.50538C24.068 1.20971 23.8885 0.941054 23.6622 0.714757C23.4359 0.488461 23.1673 0.308953 22.8716 0.186482C22.5759 0.0640114 22.259 0.000976563 21.939 0.000976563H3.25C2.38822 0.000976522 1.56172 0.343249 0.952256 0.952526C0.342792 1.5618 0.000265163 2.3882 0 3.24998L0 19.5C0 20.3619 0.34241 21.1886 0.951903 21.7981C1.5614 22.4076 2.38805 22.75 3.25 22.75H23.42C24.085 22.7677 24.7299 22.5212 25.2134 22.0645C25.697 21.6077 25.9799 20.9779 26 20.313V7.31298C25.9801 6.6479 25.6974 6.01783 25.2138 5.56084C24.7302 5.10385 24.0851 4.85721 23.42 4.87498ZM21.12 15.438C20.7986 15.438 20.4844 15.3427 20.2172 15.1641C19.95 14.9856 19.7417 14.7318 19.6187 14.4348C19.4957 14.1379 19.4635 13.8112 19.5262 13.496C19.5889 13.1807 19.7437 12.8912 19.971 12.6639C20.1982 12.4367 20.4878 12.2819 20.803 12.2192C21.1182 12.1565 21.4449 12.1887 21.7419 12.3117C22.0388 12.4347 22.2926 12.6429 22.4711 12.9102C22.6497 13.1774 22.745 13.4916 22.745 13.813C22.745 14.2431 22.5745 14.6557 22.2708 14.9603C21.9672 15.2649 21.5551 15.4367 21.125 15.438H21.12Z" fill="#06C167"/>
</svg>
