<svg width="16" height="15" viewBox="0 0 16 15" fill="none" xmlns="http://www.w3.org/2000/svg">
<path d="M7.18199 0.506749L5.32299 4.27775L1.16299 4.88475C0.995159 4.91014 0.837738 4.98186 0.708448 5.09185C0.579158 5.20184 0.48313 5.34572 0.431169 5.50732C0.379209 5.66892 0.373379 5.84181 0.414335 6.00654C0.455291 6.17127 0.541408 6.3213 0.662995 6.43975L3.67299 9.37275L2.96099 13.5157C2.93245 13.6832 2.95126 13.8552 3.01531 14.0125C3.07936 14.1698 3.1861 14.306 3.32347 14.4058C3.46085 14.5057 3.62339 14.5651 3.79276 14.5775C3.96214 14.5898 4.13159 14.5546 4.28199 14.4757L8.00399 12.5197L11.726 14.4757C11.8764 14.5546 12.0459 14.5898 12.2152 14.5775C12.3846 14.5651 12.5471 14.5057 12.6845 14.4058C12.8219 14.306 12.9286 14.1698 12.9927 14.0125C13.0567 13.8552 13.0755 13.6832 13.047 13.5157L12.331 9.37175L15.341 6.43875C15.4626 6.3203 15.5487 6.17027 15.5897 6.00554C15.6306 5.84081 15.6248 5.66792 15.5728 5.50632C15.5209 5.34472 15.4248 5.20084 15.2955 5.09085C15.1663 4.98086 15.0088 4.90914 14.841 4.88375L10.681 4.27675L8.817 0.506749C8.74162 0.35432 8.62512 0.226002 8.48066 0.136284C8.33621 0.0465665 8.16954 -0.000976563 7.9995 -0.000976562C7.82945 -0.000976563 7.66278 0.0465665 7.51833 0.136284C7.37387 0.226002 7.25737 0.35432 7.18199 0.506749Z" fill="#06C167"/>
</svg>
